<svg width="17" height="17" viewBox="0 0 17 17" fill="none" xmlns="http://www.w3.org/2000/svg">
<path d="M0.783396 0.183365C0.178844 0.502053 -0.140041 1.21246 0.0592622 1.82992C0.125696 2.04238 1.25508 3.2109 6.16457 8.11074L12.1835 14.1393L7.48661 14.1393C4.29113 14.1393 2.67677 14.1658 2.44425 14.2123C1.70683 14.3716 1.26837 15.1418 1.46103 15.9518C1.56068 16.3767 1.95928 16.8083 2.35124 16.9211C2.73656 17.0274 15.7643 17.0274 16.0766 16.9145C16.4552 16.7884 16.6745 16.5892 16.8406 16.2373L17 15.8987V9.25934C17 4.59853 16.9801 2.54033 16.9269 2.35443C16.814 1.96271 16.3822 1.56435 15.957 1.46476C15.1465 1.27222 14.3758 1.71041 14.2164 2.44738C14.1699 2.67976 14.1433 4.29312 14.1433 7.48664L14.1433 12.1807L8.15096 6.19197C3.92574 1.96935 2.07886 0.170086 1.90613 0.0970535C1.5341 -0.0556513 1.18864 -0.029094 0.783396 0.183365Z" fill="white"/>
</svg>
