<svg width="309" height="170" viewBox="0 0 309 170" fill="none" xmlns="http://www.w3.org/2000/svg">
<ellipse cx="289.913" cy="150.222" rx="1.63601" ry="1.63424" fill="#6D6D6D"/>
<ellipse cx="289.913" cy="141.506" rx="1.63601" ry="1.63424" fill="#6D6D6D"/>
<ellipse cx="289.913" cy="132.79" rx="1.63601" ry="1.63424" fill="#6D6D6D"/>
<ellipse cx="289.913" cy="124.074" rx="1.63601" ry="1.63424" fill="#6D6D6D"/>
<ellipse cx="289.913" cy="115.358" rx="1.63601" ry="1.63424" fill="#6D6D6D"/>
<ellipse cx="289.913" cy="106.642" rx="1.63601" ry="1.63424" fill="#6D6D6D"/>
<ellipse cx="289.913" cy="97.9261" rx="1.63601" ry="1.63424" fill="#6D6D6D"/>
<ellipse cx="289.913" cy="89.2101" rx="1.63601" ry="1.63424" fill="#6D6D6D"/>
<ellipse cx="298.639" cy="150.222" rx="1.63601" ry="1.63424" fill="#6D6D6D"/>
<ellipse cx="298.639" cy="141.506" rx="1.63601" ry="1.63424" fill="#6D6D6D"/>
<ellipse cx="298.639" cy="132.79" rx="1.63601" ry="1.63424" fill="#6D6D6D"/>
<ellipse cx="298.639" cy="124.074" rx="1.63601" ry="1.63424" fill="#6D6D6D"/>
<ellipse cx="298.639" cy="115.358" rx="1.63601" ry="1.63424" fill="#6D6D6D"/>
<ellipse cx="298.639" cy="106.642" rx="1.63601" ry="1.63424" fill="#6D6D6D"/>
<ellipse cx="298.639" cy="97.9261" rx="1.63601" ry="1.63424" fill="#6D6D6D"/>
<ellipse cx="298.639" cy="89.2101" rx="1.63601" ry="1.63424" fill="#6D6D6D"/>
<ellipse cx="307.364" cy="150.222" rx="1.63601" ry="1.63424" fill="#6D6D6D"/>
<ellipse cx="307.364" cy="141.506" rx="1.63601" ry="1.63424" fill="#6D6D6D"/>
<ellipse cx="307.364" cy="132.79" rx="1.63601" ry="1.63424" fill="#6D6D6D"/>
<ellipse cx="307.364" cy="124.074" rx="1.63601" ry="1.63424" fill="#6D6D6D"/>
<ellipse cx="307.364" cy="115.358" rx="1.63601" ry="1.63424" fill="#6D6D6D"/>
<ellipse cx="307.364" cy="106.642" rx="1.63601" ry="1.63424" fill="#6D6D6D"/>
<ellipse cx="307.364" cy="97.9261" rx="1.63601" ry="1.63424" fill="#6D6D6D"/>
<ellipse cx="307.364" cy="89.2101" rx="1.63601" ry="1.63424" fill="#6D6D6D"/>
<ellipse cx="263.737" cy="150.222" rx="1.63601" ry="1.63424" fill="#6D6D6D"/>
<ellipse cx="263.737" cy="141.506" rx="1.63601" ry="1.63424" fill="#6D6D6D"/>
<ellipse cx="263.737" cy="132.79" rx="1.63601" ry="1.63424" fill="#6D6D6D"/>
<ellipse cx="263.737" cy="124.074" rx="1.63601" ry="1.63424" fill="#6D6D6D"/>
<ellipse cx="263.737" cy="115.358" rx="1.63601" ry="1.63424" fill="#6D6D6D"/>
<ellipse cx="263.737" cy="106.642" rx="1.63601" ry="1.63424" fill="#6D6D6D"/>
<ellipse cx="263.737" cy="97.9261" rx="1.63601" ry="1.63424" fill="#6D6D6D"/>
<ellipse cx="263.737" cy="89.2101" rx="1.63601" ry="1.63424" fill="#6D6D6D"/>
<ellipse cx="272.462" cy="150.222" rx="1.63601" ry="1.63424" fill="#6D6D6D"/>
<ellipse cx="272.462" cy="141.506" rx="1.63601" ry="1.63424" fill="#6D6D6D"/>
<ellipse cx="272.462" cy="132.79" rx="1.63601" ry="1.63424" fill="#6D6D6D"/>
<ellipse cx="272.462" cy="124.074" rx="1.63601" ry="1.63424" fill="#6D6D6D"/>
<ellipse cx="272.462" cy="115.358" rx="1.63601" ry="1.63424" fill="#6D6D6D"/>
<ellipse cx="272.462" cy="106.642" rx="1.63601" ry="1.63424" fill="#6D6D6D"/>
<ellipse cx="272.462" cy="97.9261" rx="1.63601" ry="1.63424" fill="#6D6D6D"/>
<ellipse cx="272.462" cy="89.2101" rx="1.63601" ry="1.63424" fill="#6D6D6D"/>
<ellipse cx="281.188" cy="150.222" rx="1.63601" ry="1.63424" fill="#6D6D6D"/>
<ellipse cx="281.188" cy="141.506" rx="1.63601" ry="1.63424" fill="#6D6D6D"/>
<ellipse cx="281.188" cy="132.79" rx="1.63601" ry="1.63424" fill="#6D6D6D"/>
<ellipse cx="281.188" cy="124.074" rx="1.63601" ry="1.63424" fill="#6D6D6D"/>
<ellipse cx="281.188" cy="115.358" rx="1.63601" ry="1.63424" fill="#6D6D6D"/>
<ellipse cx="281.188" cy="106.642" rx="1.63601" ry="1.63424" fill="#6D6D6D"/>
<ellipse cx="281.188" cy="97.9261" rx="1.63601" ry="1.63424" fill="#6D6D6D"/>
<ellipse cx="281.188" cy="89.2101" rx="1.63601" ry="1.63424" fill="#6D6D6D"/>
<ellipse cx="237.561" cy="150.222" rx="1.63601" ry="1.63424" fill="#6D6D6D"/>
<ellipse cx="237.561" cy="141.506" rx="1.63601" ry="1.63424" fill="#6D6D6D"/>
<ellipse cx="237.561" cy="132.79" rx="1.63601" ry="1.63424" fill="#6D6D6D"/>
<ellipse cx="237.561" cy="124.074" rx="1.63601" ry="1.63424" fill="#6D6D6D"/>
<ellipse cx="237.561" cy="115.358" rx="1.63601" ry="1.63424" fill="#6D6D6D"/>
<ellipse cx="237.561" cy="106.642" rx="1.63601" ry="1.63424" fill="#6D6D6D"/>
<ellipse cx="237.561" cy="97.9261" rx="1.63601" ry="1.63424" fill="#6D6D6D"/>
<ellipse cx="237.561" cy="89.2101" rx="1.63601" ry="1.63424" fill="#6D6D6D"/>
<ellipse cx="246.286" cy="150.222" rx="1.63601" ry="1.63424" fill="#6D6D6D"/>
<ellipse cx="246.286" cy="141.506" rx="1.63601" ry="1.63424" fill="#6D6D6D"/>
<ellipse cx="246.286" cy="132.79" rx="1.63601" ry="1.63424" fill="#6D6D6D"/>
<ellipse cx="246.286" cy="124.074" rx="1.63601" ry="1.63424" fill="#6D6D6D"/>
<ellipse cx="246.286" cy="115.358" rx="1.63601" ry="1.63424" fill="#6D6D6D"/>
<ellipse cx="246.286" cy="106.642" rx="1.63601" ry="1.63424" fill="#6D6D6D"/>
<ellipse cx="246.286" cy="97.9261" rx="1.63601" ry="1.63424" fill="#6D6D6D"/>
<ellipse cx="246.286" cy="89.2101" rx="1.63601" ry="1.63424" fill="#6D6D6D"/>
<ellipse cx="255.012" cy="150.222" rx="1.63601" ry="1.63424" fill="#6D6D6D"/>
<ellipse cx="255.012" cy="141.506" rx="1.63601" ry="1.63424" fill="#6D6D6D"/>
<ellipse cx="255.012" cy="132.79" rx="1.63601" ry="1.63424" fill="#6D6D6D"/>
<ellipse cx="255.012" cy="124.074" rx="1.63601" ry="1.63424" fill="#6D6D6D"/>
<ellipse cx="255.012" cy="115.358" rx="1.63601" ry="1.63424" fill="#6D6D6D"/>
<ellipse cx="255.012" cy="106.642" rx="1.63601" ry="1.63424" fill="#6D6D6D"/>
<ellipse cx="255.012" cy="97.9261" rx="1.63601" ry="1.63424" fill="#6D6D6D"/>
<ellipse cx="255.012" cy="89.2101" rx="1.63601" ry="1.63424" fill="#6D6D6D"/>
<ellipse cx="211.385" cy="150.222" rx="1.63601" ry="1.63424" fill="#6D6D6D"/>
<ellipse cx="211.385" cy="141.506" rx="1.63601" ry="1.63424" fill="#6D6D6D"/>
<ellipse cx="211.385" cy="132.79" rx="1.63601" ry="1.63424" fill="#6D6D6D"/>
<ellipse cx="211.385" cy="124.074" rx="1.63601" ry="1.63424" fill="#6D6D6D"/>
<ellipse cx="211.385" cy="115.358" rx="1.63601" ry="1.63424" fill="#6D6D6D"/>
<ellipse cx="211.385" cy="106.642" rx="1.63601" ry="1.63424" fill="#6D6D6D"/>
<ellipse cx="211.385" cy="97.9261" rx="1.63601" ry="1.63424" fill="#6D6D6D"/>
<ellipse cx="211.385" cy="89.2101" rx="1.63601" ry="1.63424" fill="#6D6D6D"/>
<ellipse cx="220.11" cy="150.222" rx="1.63601" ry="1.63424" fill="#6D6D6D"/>
<ellipse cx="220.11" cy="141.506" rx="1.63601" ry="1.63424" fill="#6D6D6D"/>
<ellipse cx="220.11" cy="132.79" rx="1.63601" ry="1.63424" fill="#6D6D6D"/>
<ellipse cx="220.11" cy="124.074" rx="1.63601" ry="1.63424" fill="#6D6D6D"/>
<ellipse cx="220.11" cy="115.358" rx="1.63601" ry="1.63424" fill="#6D6D6D"/>
<ellipse cx="220.11" cy="106.642" rx="1.63601" ry="1.63424" fill="#6D6D6D"/>
<ellipse cx="220.11" cy="97.9261" rx="1.63601" ry="1.63424" fill="#6D6D6D"/>
<ellipse cx="220.11" cy="89.2101" rx="1.63601" ry="1.63424" fill="#6D6D6D"/>
<ellipse cx="228.835" cy="150.222" rx="1.63601" ry="1.63424" fill="#6D6D6D"/>
<ellipse cx="228.835" cy="141.506" rx="1.63601" ry="1.63424" fill="#6D6D6D"/>
<ellipse cx="228.835" cy="132.79" rx="1.63601" ry="1.63424" fill="#6D6D6D"/>
<ellipse cx="228.835" cy="124.074" rx="1.63601" ry="1.63424" fill="#6D6D6D"/>
<ellipse cx="228.835" cy="115.358" rx="1.63601" ry="1.63424" fill="#6D6D6D"/>
<ellipse cx="228.835" cy="106.642" rx="1.63601" ry="1.63424" fill="#6D6D6D"/>
<ellipse cx="228.835" cy="97.9261" rx="1.63601" ry="1.63424" fill="#6D6D6D"/>
<ellipse cx="228.835" cy="89.2101" rx="1.63601" ry="1.63424" fill="#6D6D6D"/>
<ellipse cx="185.209" cy="150.222" rx="1.63601" ry="1.63424" fill="#6D6D6D"/>
<ellipse cx="185.209" cy="141.506" rx="1.63601" ry="1.63424" fill="#6D6D6D"/>
<ellipse cx="185.209" cy="132.79" rx="1.63601" ry="1.63424" fill="#6D6D6D"/>
<ellipse cx="185.209" cy="124.074" rx="1.63601" ry="1.63424" fill="#6D6D6D"/>
<ellipse cx="185.209" cy="115.358" rx="1.63601" ry="1.63424" fill="#6D6D6D"/>
<ellipse cx="185.209" cy="106.642" rx="1.63601" ry="1.63424" fill="#6D6D6D"/>
<ellipse cx="185.209" cy="97.9261" rx="1.63601" ry="1.63424" fill="#6D6D6D"/>
<ellipse cx="185.209" cy="89.2101" rx="1.63601" ry="1.63424" fill="#6D6D6D"/>
<ellipse cx="193.934" cy="150.222" rx="1.63601" ry="1.63424" fill="#6D6D6D"/>
<ellipse cx="193.934" cy="141.506" rx="1.63601" ry="1.63424" fill="#6D6D6D"/>
<ellipse cx="193.934" cy="132.79" rx="1.63601" ry="1.63424" fill="#6D6D6D"/>
<ellipse cx="193.934" cy="124.074" rx="1.63601" ry="1.63424" fill="#6D6D6D"/>
<ellipse cx="193.934" cy="115.358" rx="1.63601" ry="1.63424" fill="#6D6D6D"/>
<ellipse cx="193.934" cy="106.642" rx="1.63601" ry="1.63424" fill="#6D6D6D"/>
<ellipse cx="193.934" cy="97.9261" rx="1.63601" ry="1.63424" fill="#6D6D6D"/>
<ellipse cx="193.934" cy="89.2101" rx="1.63601" ry="1.63424" fill="#6D6D6D"/>
<ellipse cx="202.659" cy="150.222" rx="1.63601" ry="1.63424" fill="#6D6D6D"/>
<ellipse cx="202.659" cy="141.506" rx="1.63601" ry="1.63424" fill="#6D6D6D"/>
<ellipse cx="202.659" cy="132.79" rx="1.63601" ry="1.63424" fill="#6D6D6D"/>
<ellipse cx="202.659" cy="124.074" rx="1.63601" ry="1.63424" fill="#6D6D6D"/>
<ellipse cx="202.659" cy="115.358" rx="1.63601" ry="1.63424" fill="#6D6D6D"/>
<ellipse cx="202.659" cy="106.642" rx="1.63601" ry="1.63424" fill="#6D6D6D"/>
<ellipse cx="202.659" cy="97.9261" rx="1.63601" ry="1.63424" fill="#6D6D6D"/>
<ellipse cx="202.659" cy="89.2101" rx="1.63601" ry="1.63424" fill="#6D6D6D"/>
<ellipse cx="159.032" cy="150.222" rx="1.63601" ry="1.63424" fill="#6D6D6D"/>
<ellipse cx="159.032" cy="141.506" rx="1.63601" ry="1.63424" fill="#6D6D6D"/>
<ellipse cx="159.032" cy="132.79" rx="1.63601" ry="1.63424" fill="#6D6D6D"/>
<ellipse cx="159.032" cy="124.074" rx="1.63601" ry="1.63424" fill="#6D6D6D"/>
<ellipse cx="159.032" cy="115.358" rx="1.63601" ry="1.63424" fill="#6D6D6D"/>
<ellipse cx="159.032" cy="106.642" rx="1.63601" ry="1.63424" fill="#6D6D6D"/>
<ellipse cx="159.032" cy="97.9261" rx="1.63601" ry="1.63424" fill="#6D6D6D"/>
<ellipse cx="159.032" cy="89.2101" rx="1.63601" ry="1.63424" fill="#6D6D6D"/>
<ellipse cx="167.758" cy="150.222" rx="1.63601" ry="1.63424" fill="#6D6D6D"/>
<ellipse cx="167.758" cy="141.506" rx="1.63601" ry="1.63424" fill="#6D6D6D"/>
<ellipse cx="167.758" cy="132.79" rx="1.63601" ry="1.63424" fill="#6D6D6D"/>
<ellipse cx="167.758" cy="124.074" rx="1.63601" ry="1.63424" fill="#6D6D6D"/>
<ellipse cx="167.758" cy="115.358" rx="1.63601" ry="1.63424" fill="#6D6D6D"/>
<ellipse cx="167.758" cy="106.642" rx="1.63601" ry="1.63424" fill="#6D6D6D"/>
<ellipse cx="167.758" cy="97.9261" rx="1.63601" ry="1.63424" fill="#6D6D6D"/>
<ellipse cx="167.758" cy="89.2101" rx="1.63601" ry="1.63424" fill="#6D6D6D"/>
<ellipse cx="176.483" cy="150.222" rx="1.63601" ry="1.63424" fill="#6D6D6D"/>
<ellipse cx="176.483" cy="141.506" rx="1.63601" ry="1.63424" fill="#6D6D6D"/>
<ellipse cx="289.913" cy="167.654" rx="1.63601" ry="1.63424" fill="#6D6D6D"/>
<ellipse cx="289.913" cy="158.938" rx="1.63601" ry="1.63424" fill="#6D6D6D"/>
<ellipse cx="298.639" cy="167.654" rx="1.63601" ry="1.63424" fill="#6D6D6D"/>
<ellipse cx="298.639" cy="158.938" rx="1.63601" ry="1.63424" fill="#6D6D6D"/>
<ellipse cx="307.364" cy="167.654" rx="1.63601" ry="1.63424" fill="#6D6D6D"/>
<ellipse cx="307.364" cy="158.938" rx="1.63601" ry="1.63424" fill="#6D6D6D"/>
<ellipse cx="263.737" cy="167.654" rx="1.63601" ry="1.63424" fill="#6D6D6D"/>
<ellipse cx="263.737" cy="158.938" rx="1.63601" ry="1.63424" fill="#6D6D6D"/>
<ellipse cx="272.462" cy="167.654" rx="1.63601" ry="1.63424" fill="#6D6D6D"/>
<ellipse cx="272.462" cy="158.938" rx="1.63601" ry="1.63424" fill="#6D6D6D"/>
<ellipse cx="281.188" cy="167.654" rx="1.63601" ry="1.63424" fill="#6D6D6D"/>
<ellipse cx="281.188" cy="158.938" rx="1.63601" ry="1.63424" fill="#6D6D6D"/>
<ellipse cx="237.561" cy="167.654" rx="1.63601" ry="1.63424" fill="#6D6D6D"/>
<ellipse cx="237.561" cy="158.938" rx="1.63601" ry="1.63424" fill="#6D6D6D"/>
<ellipse cx="246.286" cy="167.654" rx="1.63601" ry="1.63424" fill="#6D6D6D"/>
<ellipse cx="246.286" cy="158.938" rx="1.63601" ry="1.63424" fill="#6D6D6D"/>
<ellipse cx="255.012" cy="167.654" rx="1.63601" ry="1.63424" fill="#6D6D6D"/>
<ellipse cx="255.012" cy="158.938" rx="1.63601" ry="1.63424" fill="#6D6D6D"/>
<ellipse cx="211.385" cy="167.654" rx="1.63601" ry="1.63424" fill="#6D6D6D"/>
<ellipse cx="211.385" cy="158.938" rx="1.63601" ry="1.63424" fill="#6D6D6D"/>
<ellipse cx="220.11" cy="167.654" rx="1.63601" ry="1.63424" fill="#6D6D6D"/>
<ellipse cx="220.11" cy="158.938" rx="1.63601" ry="1.63424" fill="#6D6D6D"/>
<ellipse cx="228.835" cy="167.654" rx="1.63601" ry="1.63424" fill="#6D6D6D"/>
<ellipse cx="228.835" cy="158.938" rx="1.63601" ry="1.63424" fill="#6D6D6D"/>
<ellipse cx="185.209" cy="167.654" rx="1.63601" ry="1.63424" fill="#6D6D6D"/>
<ellipse cx="185.209" cy="158.938" rx="1.63601" ry="1.63424" fill="#6D6D6D"/>
<ellipse cx="193.934" cy="167.654" rx="1.63601" ry="1.63424" fill="#6D6D6D"/>
<ellipse cx="193.934" cy="158.938" rx="1.63601" ry="1.63424" fill="#6D6D6D"/>
<ellipse cx="202.659" cy="167.654" rx="1.63601" ry="1.63424" fill="#6D6D6D"/>
<ellipse cx="202.659" cy="158.938" rx="1.63601" ry="1.63424" fill="#6D6D6D"/>
<ellipse cx="159.032" cy="167.654" rx="1.63601" ry="1.63424" fill="#6D6D6D"/>
<ellipse cx="159.032" cy="158.938" rx="1.63601" ry="1.63424" fill="#6D6D6D"/>
<ellipse cx="167.758" cy="167.654" rx="1.63601" ry="1.63424" fill="#6D6D6D"/>
<ellipse cx="167.758" cy="158.938" rx="1.63601" ry="1.63424" fill="#6D6D6D"/>
<ellipse cx="176.483" cy="167.654" rx="1.63601" ry="1.63424" fill="#6D6D6D"/>
<ellipse cx="176.483" cy="158.938" rx="1.63601" ry="1.63424" fill="#6D6D6D"/>
<ellipse cx="176.483" cy="132.79" rx="1.63601" ry="1.63424" fill="#6D6D6D"/>
<ellipse cx="176.483" cy="124.074" rx="1.63601" ry="1.63424" fill="#6D6D6D"/>
<ellipse cx="176.483" cy="115.358" rx="1.63601" ry="1.63424" fill="#6D6D6D"/>
<ellipse cx="176.483" cy="106.642" rx="1.63601" ry="1.63424" fill="#6D6D6D"/>
<ellipse cx="176.483" cy="97.9261" rx="1.63601" ry="1.63424" fill="#6D6D6D"/>
<ellipse cx="176.483" cy="89.2101" rx="1.63601" ry="1.63424" fill="#6D6D6D"/>
<ellipse cx="132.856" cy="150.222" rx="1.63601" ry="1.63424" fill="#6D6D6D"/>
<ellipse cx="132.856" cy="141.506" rx="1.63601" ry="1.63424" fill="#6D6D6D"/>
<ellipse cx="132.856" cy="132.79" rx="1.63601" ry="1.63424" fill="#6D6D6D"/>
<ellipse cx="132.856" cy="124.074" rx="1.63601" ry="1.63424" fill="#6D6D6D"/>
<ellipse cx="132.856" cy="115.358" rx="1.63601" ry="1.63424" fill="#6D6D6D"/>
<ellipse cx="132.856" cy="106.642" rx="1.63601" ry="1.63424" fill="#6D6D6D"/>
<ellipse cx="132.856" cy="97.9261" rx="1.63601" ry="1.63424" fill="#6D6D6D"/>
<ellipse cx="132.856" cy="89.2101" rx="1.63601" ry="1.63424" fill="#6D6D6D"/>
<ellipse cx="141.582" cy="150.222" rx="1.63601" ry="1.63424" fill="#6D6D6D"/>
<ellipse cx="141.582" cy="141.506" rx="1.63601" ry="1.63424" fill="#6D6D6D"/>
<ellipse cx="141.582" cy="132.79" rx="1.63601" ry="1.63424" fill="#6D6D6D"/>
<ellipse cx="141.582" cy="124.074" rx="1.63601" ry="1.63424" fill="#6D6D6D"/>
<ellipse cx="141.582" cy="115.358" rx="1.63601" ry="1.63424" fill="#6D6D6D"/>
<ellipse cx="141.582" cy="106.642" rx="1.63601" ry="1.63424" fill="#6D6D6D"/>
<ellipse cx="141.582" cy="97.9261" rx="1.63601" ry="1.63424" fill="#6D6D6D"/>
<ellipse cx="141.582" cy="89.2101" rx="1.63601" ry="1.63424" fill="#6D6D6D"/>
<ellipse cx="150.307" cy="150.222" rx="1.63601" ry="1.63424" fill="#6D6D6D"/>
<ellipse cx="150.307" cy="141.506" rx="1.63601" ry="1.63424" fill="#6D6D6D"/>
<ellipse cx="150.307" cy="132.79" rx="1.63601" ry="1.63424" fill="#6D6D6D"/>
<ellipse cx="150.307" cy="124.074" rx="1.63601" ry="1.63424" fill="#6D6D6D"/>
<ellipse cx="150.307" cy="115.358" rx="1.63601" ry="1.63424" fill="#6D6D6D"/>
<ellipse cx="150.307" cy="106.642" rx="1.63601" ry="1.63424" fill="#6D6D6D"/>
<ellipse cx="150.307" cy="97.9261" rx="1.63601" ry="1.63424" fill="#6D6D6D"/>
<ellipse cx="150.307" cy="89.2101" rx="1.63601" ry="1.63424" fill="#6D6D6D"/>
<ellipse cx="106.68" cy="150.222" rx="1.63601" ry="1.63424" fill="#6D6D6D"/>
<ellipse cx="106.68" cy="141.506" rx="1.63601" ry="1.63424" fill="#6D6D6D"/>
<ellipse cx="106.68" cy="132.79" rx="1.63601" ry="1.63424" fill="#6D6D6D"/>
<ellipse cx="106.68" cy="124.074" rx="1.63601" ry="1.63424" fill="#6D6D6D"/>
<ellipse cx="106.68" cy="115.358" rx="1.63601" ry="1.63424" fill="#6D6D6D"/>
<ellipse cx="106.68" cy="106.642" rx="1.63601" ry="1.63424" fill="#6D6D6D"/>
<ellipse cx="106.68" cy="97.9261" rx="1.63601" ry="1.63424" fill="#6D6D6D"/>
<ellipse cx="106.68" cy="89.2101" rx="1.63601" ry="1.63424" fill="#6D6D6D"/>
<ellipse cx="115.405" cy="150.222" rx="1.63601" ry="1.63424" fill="#6D6D6D"/>
<ellipse cx="115.405" cy="141.506" rx="1.63601" ry="1.63424" fill="#6D6D6D"/>
<ellipse cx="115.405" cy="132.79" rx="1.63601" ry="1.63424" fill="#6D6D6D"/>
<ellipse cx="115.405" cy="124.074" rx="1.63601" ry="1.63424" fill="#6D6D6D"/>
<ellipse cx="115.405" cy="115.358" rx="1.63601" ry="1.63424" fill="#6D6D6D"/>
<ellipse cx="115.405" cy="106.642" rx="1.63601" ry="1.63424" fill="#6D6D6D"/>
<ellipse cx="115.405" cy="97.9261" rx="1.63601" ry="1.63424" fill="#6D6D6D"/>
<ellipse cx="115.405" cy="89.2101" rx="1.63601" ry="1.63424" fill="#6D6D6D"/>
<ellipse cx="124.131" cy="150.222" rx="1.63601" ry="1.63424" fill="#6D6D6D"/>
<ellipse cx="124.131" cy="141.506" rx="1.63601" ry="1.63424" fill="#6D6D6D"/>
<ellipse cx="124.131" cy="132.79" rx="1.63601" ry="1.63424" fill="#6D6D6D"/>
<ellipse cx="124.131" cy="124.074" rx="1.63601" ry="1.63424" fill="#6D6D6D"/>
<ellipse cx="124.131" cy="115.358" rx="1.63601" ry="1.63424" fill="#6D6D6D"/>
<ellipse cx="124.131" cy="106.642" rx="1.63601" ry="1.63424" fill="#6D6D6D"/>
<ellipse cx="124.131" cy="97.9261" rx="1.63601" ry="1.63424" fill="#6D6D6D"/>
<ellipse cx="124.131" cy="89.2101" rx="1.63601" ry="1.63424" fill="#6D6D6D"/>
<ellipse cx="80.5038" cy="150.222" rx="1.63601" ry="1.63424" fill="#6D6D6D"/>
<ellipse cx="80.5038" cy="141.506" rx="1.63601" ry="1.63424" fill="#6D6D6D"/>
<ellipse cx="80.5038" cy="132.79" rx="1.63601" ry="1.63424" fill="#6D6D6D"/>
<ellipse cx="80.5038" cy="124.074" rx="1.63601" ry="1.63424" fill="#6D6D6D"/>
<ellipse cx="80.5038" cy="115.358" rx="1.63601" ry="1.63424" fill="#6D6D6D"/>
<ellipse cx="80.5038" cy="106.642" rx="1.63601" ry="1.63424" fill="#6D6D6D"/>
<ellipse cx="80.5038" cy="97.9261" rx="1.63601" ry="1.63424" fill="#6D6D6D"/>
<ellipse cx="80.5038" cy="89.2101" rx="1.63601" ry="1.63424" fill="#6D6D6D"/>
<ellipse cx="89.2293" cy="150.222" rx="1.63601" ry="1.63424" fill="#6D6D6D"/>
<ellipse cx="89.2293" cy="141.506" rx="1.63601" ry="1.63424" fill="#6D6D6D"/>
<ellipse cx="89.2293" cy="132.79" rx="1.63601" ry="1.63424" fill="#6D6D6D"/>
<ellipse cx="89.2293" cy="124.074" rx="1.63601" ry="1.63424" fill="#6D6D6D"/>
<ellipse cx="89.2293" cy="115.358" rx="1.63601" ry="1.63424" fill="#6D6D6D"/>
<ellipse cx="89.2293" cy="106.642" rx="1.63601" ry="1.63424" fill="#6D6D6D"/>
<ellipse cx="89.2293" cy="97.9261" rx="1.63601" ry="1.63424" fill="#6D6D6D"/>
<ellipse cx="89.2293" cy="89.2101" rx="1.63601" ry="1.63424" fill="#6D6D6D"/>
<ellipse cx="97.9546" cy="150.222" rx="1.63601" ry="1.63424" fill="#6D6D6D"/>
<ellipse cx="97.9546" cy="141.506" rx="1.63601" ry="1.63424" fill="#6D6D6D"/>
<ellipse cx="97.9546" cy="132.79" rx="1.63601" ry="1.63424" fill="#6D6D6D"/>
<ellipse cx="97.9546" cy="124.074" rx="1.63601" ry="1.63424" fill="#6D6D6D"/>
<ellipse cx="97.9546" cy="115.358" rx="1.63601" ry="1.63424" fill="#6D6D6D"/>
<ellipse cx="97.9546" cy="106.642" rx="1.63601" ry="1.63424" fill="#6D6D6D"/>
<ellipse cx="97.9546" cy="97.9261" rx="1.63601" ry="1.63424" fill="#6D6D6D"/>
<ellipse cx="97.9546" cy="89.2101" rx="1.63601" ry="1.63424" fill="#6D6D6D"/>
<ellipse cx="54.3277" cy="150.222" rx="1.63601" ry="1.63424" fill="#6D6D6D"/>
<ellipse cx="54.3277" cy="141.506" rx="1.63601" ry="1.63424" fill="#6D6D6D"/>
<ellipse cx="54.3277" cy="132.79" rx="1.63601" ry="1.63424" fill="#6D6D6D"/>
<ellipse cx="54.3277" cy="124.074" rx="1.63601" ry="1.63424" fill="#6D6D6D"/>
<ellipse cx="54.3277" cy="115.358" rx="1.63601" ry="1.63424" fill="#6D6D6D"/>
<ellipse cx="54.3277" cy="106.642" rx="1.63601" ry="1.63424" fill="#6D6D6D"/>
<ellipse cx="54.3277" cy="97.9261" rx="1.63601" ry="1.63424" fill="#6D6D6D"/>
<ellipse cx="54.3277" cy="89.2101" rx="1.63601" ry="1.63424" fill="#6D6D6D"/>
<ellipse cx="63.0531" cy="150.222" rx="1.63601" ry="1.63424" fill="#6D6D6D"/>
<ellipse cx="63.0531" cy="141.506" rx="1.63601" ry="1.63424" fill="#6D6D6D"/>
<ellipse cx="63.0531" cy="132.79" rx="1.63601" ry="1.63424" fill="#6D6D6D"/>
<ellipse cx="63.0531" cy="124.074" rx="1.63601" ry="1.63424" fill="#6D6D6D"/>
<ellipse cx="63.0531" cy="115.358" rx="1.63601" ry="1.63424" fill="#6D6D6D"/>
<ellipse cx="63.0531" cy="106.642" rx="1.63601" ry="1.63424" fill="#6D6D6D"/>
<ellipse cx="63.0531" cy="97.9261" rx="1.63601" ry="1.63424" fill="#6D6D6D"/>
<ellipse cx="63.0531" cy="89.2101" rx="1.63601" ry="1.63424" fill="#6D6D6D"/>
<ellipse cx="71.7785" cy="150.222" rx="1.63601" ry="1.63424" fill="#6D6D6D"/>
<ellipse cx="71.7785" cy="141.506" rx="1.63601" ry="1.63424" fill="#6D6D6D"/>
<ellipse cx="71.7785" cy="132.79" rx="1.63601" ry="1.63424" fill="#6D6D6D"/>
<ellipse cx="71.7785" cy="124.074" rx="1.63601" ry="1.63424" fill="#6D6D6D"/>
<ellipse cx="71.7785" cy="115.358" rx="1.63601" ry="1.63424" fill="#6D6D6D"/>
<ellipse cx="71.7785" cy="106.642" rx="1.63601" ry="1.63424" fill="#6D6D6D"/>
<ellipse cx="71.7785" cy="97.9261" rx="1.63601" ry="1.63424" fill="#6D6D6D"/>
<ellipse cx="71.7785" cy="89.2101" rx="1.63601" ry="1.63424" fill="#6D6D6D"/>
<ellipse cx="28.1515" cy="150.222" rx="1.63601" ry="1.63424" fill="#6D6D6D"/>
<ellipse cx="28.1515" cy="141.506" rx="1.63601" ry="1.63424" fill="#6D6D6D"/>
<ellipse cx="28.1515" cy="132.79" rx="1.63601" ry="1.63424" fill="#6D6D6D"/>
<ellipse cx="28.1515" cy="124.074" rx="1.63601" ry="1.63424" fill="#6D6D6D"/>
<ellipse cx="28.1515" cy="115.358" rx="1.63601" ry="1.63424" fill="#6D6D6D"/>
<ellipse cx="28.1515" cy="106.642" rx="1.63601" ry="1.63424" fill="#6D6D6D"/>
<ellipse cx="28.1515" cy="97.9261" rx="1.63601" ry="1.63424" fill="#6D6D6D"/>
<ellipse cx="28.1515" cy="89.2101" rx="1.63601" ry="1.63424" fill="#6D6D6D"/>
<ellipse cx="36.8769" cy="150.222" rx="1.63601" ry="1.63424" fill="#6D6D6D"/>
<ellipse cx="36.8769" cy="141.506" rx="1.63601" ry="1.63424" fill="#6D6D6D"/>
<ellipse cx="36.8769" cy="132.79" rx="1.63601" ry="1.63424" fill="#6D6D6D"/>
<ellipse cx="36.8769" cy="124.074" rx="1.63601" ry="1.63424" fill="#6D6D6D"/>
<ellipse cx="36.8769" cy="115.358" rx="1.63601" ry="1.63424" fill="#6D6D6D"/>
<ellipse cx="36.8769" cy="106.642" rx="1.63601" ry="1.63424" fill="#6D6D6D"/>
<ellipse cx="36.8769" cy="97.9261" rx="1.63601" ry="1.63424" fill="#6D6D6D"/>
<ellipse cx="36.8769" cy="89.2101" rx="1.63601" ry="1.63424" fill="#6D6D6D"/>
<ellipse cx="45.6023" cy="150.222" rx="1.63601" ry="1.63424" fill="#6D6D6D"/>
<ellipse cx="45.6023" cy="141.506" rx="1.63601" ry="1.63424" fill="#6D6D6D"/>
<ellipse cx="45.6023" cy="132.79" rx="1.63601" ry="1.63424" fill="#6D6D6D"/>
<ellipse cx="45.6023" cy="124.074" rx="1.63601" ry="1.63424" fill="#6D6D6D"/>
<ellipse cx="45.6023" cy="115.358" rx="1.63601" ry="1.63424" fill="#6D6D6D"/>
<ellipse cx="45.6023" cy="106.642" rx="1.63601" ry="1.63424" fill="#6D6D6D"/>
<ellipse cx="45.6023" cy="97.9261" rx="1.63601" ry="1.63424" fill="#6D6D6D"/>
<ellipse cx="45.6023" cy="89.2101" rx="1.63601" ry="1.63424" fill="#6D6D6D"/>
<ellipse cx="1.97537" cy="150.222" rx="1.63601" ry="1.63424" fill="#6D6D6D"/>
<ellipse cx="1.97537" cy="141.506" rx="1.63601" ry="1.63424" fill="#6D6D6D"/>
<ellipse cx="1.97537" cy="132.79" rx="1.63601" ry="1.63424" fill="#6D6D6D"/>
<ellipse cx="1.97537" cy="124.074" rx="1.63601" ry="1.63424" fill="#6D6D6D"/>
<ellipse cx="1.97537" cy="115.358" rx="1.63601" ry="1.63424" fill="#6D6D6D"/>
<ellipse cx="1.97537" cy="106.642" rx="1.63601" ry="1.63424" fill="#6D6D6D"/>
<ellipse cx="1.97537" cy="97.9261" rx="1.63601" ry="1.63424" fill="#6D6D6D"/>
<ellipse cx="1.97537" cy="89.2101" rx="1.63601" ry="1.63424" fill="#6D6D6D"/>
<ellipse cx="10.7008" cy="150.222" rx="1.63601" ry="1.63424" fill="#6D6D6D"/>
<ellipse cx="10.7008" cy="141.506" rx="1.63601" ry="1.63424" fill="#6D6D6D"/>
<ellipse cx="10.7008" cy="132.79" rx="1.63601" ry="1.63424" fill="#6D6D6D"/>
<ellipse cx="10.7008" cy="124.074" rx="1.63601" ry="1.63424" fill="#6D6D6D"/>
<ellipse cx="10.7008" cy="115.358" rx="1.63601" ry="1.63424" fill="#6D6D6D"/>
<ellipse cx="10.7008" cy="106.642" rx="1.63601" ry="1.63424" fill="#6D6D6D"/>
<ellipse cx="10.7008" cy="97.9261" rx="1.63601" ry="1.63424" fill="#6D6D6D"/>
<ellipse cx="10.7008" cy="89.2101" rx="1.63601" ry="1.63424" fill="#6D6D6D"/>
<ellipse cx="19.4262" cy="150.222" rx="1.63601" ry="1.63424" fill="#6D6D6D"/>
<ellipse cx="19.4262" cy="141.506" rx="1.63601" ry="1.63424" fill="#6D6D6D"/>
<ellipse cx="132.856" cy="167.654" rx="1.63601" ry="1.63424" fill="#6D6D6D"/>
<ellipse cx="132.856" cy="158.938" rx="1.63601" ry="1.63424" fill="#6D6D6D"/>
<ellipse cx="141.582" cy="167.654" rx="1.63601" ry="1.63424" fill="#6D6D6D"/>
<ellipse cx="141.582" cy="158.938" rx="1.63601" ry="1.63424" fill="#6D6D6D"/>
<ellipse cx="150.307" cy="167.654" rx="1.63601" ry="1.63424" fill="#6D6D6D"/>
<ellipse cx="150.307" cy="158.938" rx="1.63601" ry="1.63424" fill="#6D6D6D"/>
<ellipse cx="106.68" cy="167.654" rx="1.63601" ry="1.63424" fill="#6D6D6D"/>
<ellipse cx="106.68" cy="158.938" rx="1.63601" ry="1.63424" fill="#6D6D6D"/>
<ellipse cx="115.405" cy="167.654" rx="1.63601" ry="1.63424" fill="#6D6D6D"/>
<ellipse cx="115.405" cy="158.938" rx="1.63601" ry="1.63424" fill="#6D6D6D"/>
<ellipse cx="124.131" cy="167.654" rx="1.63601" ry="1.63424" fill="#6D6D6D"/>
<ellipse cx="124.131" cy="158.938" rx="1.63601" ry="1.63424" fill="#6D6D6D"/>
<ellipse cx="80.5038" cy="167.654" rx="1.63601" ry="1.63424" fill="#6D6D6D"/>
<ellipse cx="80.5038" cy="158.938" rx="1.63601" ry="1.63424" fill="#6D6D6D"/>
<ellipse cx="89.2293" cy="167.654" rx="1.63601" ry="1.63424" fill="#6D6D6D"/>
<ellipse cx="89.2293" cy="158.938" rx="1.63601" ry="1.63424" fill="#6D6D6D"/>
<ellipse cx="97.9546" cy="167.654" rx="1.63601" ry="1.63424" fill="#6D6D6D"/>
<ellipse cx="97.9546" cy="158.938" rx="1.63601" ry="1.63424" fill="#6D6D6D"/>
<ellipse cx="54.3277" cy="167.654" rx="1.63601" ry="1.63424" fill="#6D6D6D"/>
<ellipse cx="54.3277" cy="158.938" rx="1.63601" ry="1.63424" fill="#6D6D6D"/>
<ellipse cx="63.0531" cy="167.654" rx="1.63601" ry="1.63424" fill="#6D6D6D"/>
<ellipse cx="63.0531" cy="158.938" rx="1.63601" ry="1.63424" fill="#6D6D6D"/>
<ellipse cx="71.7785" cy="167.654" rx="1.63601" ry="1.63424" fill="#6D6D6D"/>
<ellipse cx="71.7785" cy="158.938" rx="1.63601" ry="1.63424" fill="#6D6D6D"/>
<ellipse cx="28.1515" cy="167.654" rx="1.63601" ry="1.63424" fill="#6D6D6D"/>
<ellipse cx="28.1515" cy="158.938" rx="1.63601" ry="1.63424" fill="#6D6D6D"/>
<ellipse cx="36.8769" cy="167.654" rx="1.63601" ry="1.63424" fill="#6D6D6D"/>
<ellipse cx="36.8769" cy="158.938" rx="1.63601" ry="1.63424" fill="#6D6D6D"/>
<ellipse cx="45.6023" cy="167.654" rx="1.63601" ry="1.63424" fill="#6D6D6D"/>
<ellipse cx="45.6023" cy="158.938" rx="1.63601" ry="1.63424" fill="#6D6D6D"/>
<ellipse cx="1.97537" cy="167.654" rx="1.63601" ry="1.63424" fill="#6D6D6D"/>
<ellipse cx="1.97537" cy="158.938" rx="1.63601" ry="1.63424" fill="#6D6D6D"/>
<ellipse cx="10.7008" cy="167.654" rx="1.63601" ry="1.63424" fill="#6D6D6D"/>
<ellipse cx="10.7008" cy="158.938" rx="1.63601" ry="1.63424" fill="#6D6D6D"/>
<ellipse cx="19.4262" cy="167.654" rx="1.63601" ry="1.63424" fill="#6D6D6D"/>
<ellipse cx="19.4262" cy="158.938" rx="1.63601" ry="1.63424" fill="#6D6D6D"/>
<ellipse cx="19.4262" cy="132.79" rx="1.63601" ry="1.63424" fill="#6D6D6D"/>
<ellipse cx="19.4262" cy="124.074" rx="1.63601" ry="1.63424" fill="#6D6D6D"/>
<ellipse cx="19.4262" cy="115.358" rx="1.63601" ry="1.63424" fill="#6D6D6D"/>
<ellipse cx="19.4262" cy="106.642" rx="1.63601" ry="1.63424" fill="#6D6D6D"/>
<ellipse cx="19.4262" cy="97.9261" rx="1.63601" ry="1.63424" fill="#6D6D6D"/>
<ellipse cx="19.4262" cy="89.2101" rx="1.63601" ry="1.63424" fill="#6D6D6D"/>
<ellipse cx="289.913" cy="63.0623" rx="1.63601" ry="1.63424" fill="#6D6D6D"/>
<ellipse cx="289.913" cy="54.3463" rx="1.63601" ry="1.63424" fill="#6D6D6D"/>
<ellipse cx="289.913" cy="45.6304" rx="1.63601" ry="1.63424" fill="#6D6D6D"/>
<ellipse cx="289.913" cy="36.9144" rx="1.63601" ry="1.63424" fill="#6D6D6D"/>
<ellipse cx="289.913" cy="28.1985" rx="1.63601" ry="1.63424" fill="#6D6D6D"/>
<ellipse cx="289.913" cy="19.4825" rx="1.63601" ry="1.63424" fill="#6D6D6D"/>
<ellipse cx="289.913" cy="10.7665" rx="1.63601" ry="1.63424" fill="#6D6D6D"/>
<ellipse cx="289.913" cy="2.05059" rx="1.63601" ry="1.63424" fill="#6D6D6D"/>
<ellipse cx="298.639" cy="63.0623" rx="1.63601" ry="1.63424" fill="#6D6D6D"/>
<ellipse cx="298.639" cy="54.3463" rx="1.63601" ry="1.63424" fill="#6D6D6D"/>
<ellipse cx="298.639" cy="45.6304" rx="1.63601" ry="1.63424" fill="#6D6D6D"/>
<ellipse cx="298.639" cy="36.9144" rx="1.63601" ry="1.63424" fill="#6D6D6D"/>
<ellipse cx="298.639" cy="28.1985" rx="1.63601" ry="1.63424" fill="#6D6D6D"/>
<ellipse cx="298.639" cy="19.4825" rx="1.63601" ry="1.63424" fill="#6D6D6D"/>
<ellipse cx="298.639" cy="10.7665" rx="1.63601" ry="1.63424" fill="#6D6D6D"/>
<ellipse cx="298.639" cy="2.05059" rx="1.63601" ry="1.63424" fill="#6D6D6D"/>
<ellipse cx="307.364" cy="63.0623" rx="1.63601" ry="1.63424" fill="#6D6D6D"/>
<ellipse cx="307.364" cy="54.3463" rx="1.63601" ry="1.63424" fill="#6D6D6D"/>
<ellipse cx="307.364" cy="45.6304" rx="1.63601" ry="1.63424" fill="#6D6D6D"/>
<ellipse cx="307.364" cy="36.9144" rx="1.63601" ry="1.63424" fill="#6D6D6D"/>
<ellipse cx="307.364" cy="28.1985" rx="1.63601" ry="1.63424" fill="#6D6D6D"/>
<ellipse cx="307.364" cy="19.4825" rx="1.63601" ry="1.63424" fill="#6D6D6D"/>
<ellipse cx="307.364" cy="10.7665" rx="1.63601" ry="1.63424" fill="#6D6D6D"/>
<ellipse cx="307.364" cy="2.05059" rx="1.63601" ry="1.63424" fill="#6D6D6D"/>
<ellipse cx="263.737" cy="63.0623" rx="1.63601" ry="1.63424" fill="#6D6D6D"/>
<ellipse cx="263.737" cy="54.3463" rx="1.63601" ry="1.63424" fill="#6D6D6D"/>
<ellipse cx="263.737" cy="45.6304" rx="1.63601" ry="1.63424" fill="#6D6D6D"/>
<ellipse cx="263.737" cy="36.9144" rx="1.63601" ry="1.63424" fill="#6D6D6D"/>
<ellipse cx="263.737" cy="28.1985" rx="1.63601" ry="1.63424" fill="#6D6D6D"/>
<ellipse cx="263.737" cy="19.4825" rx="1.63601" ry="1.63424" fill="#6D6D6D"/>
<ellipse cx="263.737" cy="10.7665" rx="1.63601" ry="1.63424" fill="#6D6D6D"/>
<ellipse cx="263.737" cy="2.05059" rx="1.63601" ry="1.63424" fill="#6D6D6D"/>
<ellipse cx="272.462" cy="63.0623" rx="1.63601" ry="1.63424" fill="#6D6D6D"/>
<ellipse cx="272.462" cy="54.3463" rx="1.63601" ry="1.63424" fill="#6D6D6D"/>
<ellipse cx="272.462" cy="45.6304" rx="1.63601" ry="1.63424" fill="#6D6D6D"/>
<ellipse cx="272.462" cy="36.9144" rx="1.63601" ry="1.63424" fill="#6D6D6D"/>
<ellipse cx="272.462" cy="28.1985" rx="1.63601" ry="1.63424" fill="#6D6D6D"/>
<ellipse cx="272.462" cy="19.4825" rx="1.63601" ry="1.63424" fill="#6D6D6D"/>
<ellipse cx="272.462" cy="10.7665" rx="1.63601" ry="1.63424" fill="#6D6D6D"/>
<ellipse cx="272.462" cy="2.05059" rx="1.63601" ry="1.63424" fill="#6D6D6D"/>
<ellipse cx="281.188" cy="63.0623" rx="1.63601" ry="1.63424" fill="#6D6D6D"/>
<ellipse cx="281.188" cy="54.3463" rx="1.63601" ry="1.63424" fill="#6D6D6D"/>
<ellipse cx="281.188" cy="45.6304" rx="1.63601" ry="1.63424" fill="#6D6D6D"/>
<ellipse cx="281.188" cy="36.9144" rx="1.63601" ry="1.63424" fill="#6D6D6D"/>
<ellipse cx="281.188" cy="28.1985" rx="1.63601" ry="1.63424" fill="#6D6D6D"/>
<ellipse cx="281.188" cy="19.4825" rx="1.63601" ry="1.63424" fill="#6D6D6D"/>
<ellipse cx="281.188" cy="10.7665" rx="1.63601" ry="1.63424" fill="#6D6D6D"/>
<ellipse cx="281.188" cy="2.05059" rx="1.63601" ry="1.63424" fill="#6D6D6D"/>
<ellipse cx="237.561" cy="63.0623" rx="1.63601" ry="1.63424" fill="#6D6D6D"/>
<ellipse cx="237.561" cy="54.3463" rx="1.63601" ry="1.63424" fill="#6D6D6D"/>
<ellipse cx="237.561" cy="45.6304" rx="1.63601" ry="1.63424" fill="#6D6D6D"/>
<ellipse cx="237.561" cy="36.9144" rx="1.63601" ry="1.63424" fill="#6D6D6D"/>
<ellipse cx="237.561" cy="28.1985" rx="1.63601" ry="1.63424" fill="#6D6D6D"/>
<ellipse cx="237.561" cy="19.4825" rx="1.63601" ry="1.63424" fill="#6D6D6D"/>
<ellipse cx="237.561" cy="10.7665" rx="1.63601" ry="1.63424" fill="#6D6D6D"/>
<ellipse cx="237.561" cy="2.05059" rx="1.63601" ry="1.63424" fill="#6D6D6D"/>
<ellipse cx="246.286" cy="63.0623" rx="1.63601" ry="1.63424" fill="#6D6D6D"/>
<ellipse cx="246.286" cy="54.3463" rx="1.63601" ry="1.63424" fill="#6D6D6D"/>
<ellipse cx="246.286" cy="45.6304" rx="1.63601" ry="1.63424" fill="#6D6D6D"/>
<ellipse cx="246.286" cy="36.9144" rx="1.63601" ry="1.63424" fill="#6D6D6D"/>
<ellipse cx="246.286" cy="28.1985" rx="1.63601" ry="1.63424" fill="#6D6D6D"/>
<ellipse cx="246.286" cy="19.4825" rx="1.63601" ry="1.63424" fill="#6D6D6D"/>
<ellipse cx="246.286" cy="10.7665" rx="1.63601" ry="1.63424" fill="#6D6D6D"/>
<ellipse cx="246.286" cy="2.05059" rx="1.63601" ry="1.63424" fill="#6D6D6D"/>
<ellipse cx="255.012" cy="63.0623" rx="1.63601" ry="1.63424" fill="#6D6D6D"/>
<ellipse cx="255.012" cy="54.3463" rx="1.63601" ry="1.63424" fill="#6D6D6D"/>
<ellipse cx="255.012" cy="45.6304" rx="1.63601" ry="1.63424" fill="#6D6D6D"/>
<ellipse cx="255.012" cy="36.9144" rx="1.63601" ry="1.63424" fill="#6D6D6D"/>
<ellipse cx="255.012" cy="28.1985" rx="1.63601" ry="1.63424" fill="#6D6D6D"/>
<ellipse cx="255.012" cy="19.4825" rx="1.63601" ry="1.63424" fill="#6D6D6D"/>
<ellipse cx="255.012" cy="10.7665" rx="1.63601" ry="1.63424" fill="#6D6D6D"/>
<ellipse cx="255.012" cy="2.05059" rx="1.63601" ry="1.63424" fill="#6D6D6D"/>
<ellipse cx="211.385" cy="63.0623" rx="1.63601" ry="1.63424" fill="#6D6D6D"/>
<ellipse cx="211.385" cy="54.3463" rx="1.63601" ry="1.63424" fill="#6D6D6D"/>
<ellipse cx="211.385" cy="45.6304" rx="1.63601" ry="1.63424" fill="#6D6D6D"/>
<ellipse cx="211.385" cy="36.9144" rx="1.63601" ry="1.63424" fill="#6D6D6D"/>
<ellipse cx="211.385" cy="28.1985" rx="1.63601" ry="1.63424" fill="#6D6D6D"/>
<ellipse cx="211.385" cy="19.4825" rx="1.63601" ry="1.63424" fill="#6D6D6D"/>
<ellipse cx="211.385" cy="10.7665" rx="1.63601" ry="1.63424" fill="#6D6D6D"/>
<ellipse cx="211.385" cy="2.05059" rx="1.63601" ry="1.63424" fill="#6D6D6D"/>
<ellipse cx="220.11" cy="63.0623" rx="1.63601" ry="1.63424" fill="#6D6D6D"/>
<ellipse cx="220.11" cy="54.3463" rx="1.63601" ry="1.63424" fill="#6D6D6D"/>
<ellipse cx="220.11" cy="45.6304" rx="1.63601" ry="1.63424" fill="#6D6D6D"/>
<ellipse cx="220.11" cy="36.9144" rx="1.63601" ry="1.63424" fill="#6D6D6D"/>
<ellipse cx="220.11" cy="28.1985" rx="1.63601" ry="1.63424" fill="#6D6D6D"/>
<ellipse cx="220.11" cy="19.4825" rx="1.63601" ry="1.63424" fill="#6D6D6D"/>
<ellipse cx="220.11" cy="10.7665" rx="1.63601" ry="1.63424" fill="#6D6D6D"/>
<ellipse cx="220.11" cy="2.05059" rx="1.63601" ry="1.63424" fill="#6D6D6D"/>
<ellipse cx="228.835" cy="63.0623" rx="1.63601" ry="1.63424" fill="#6D6D6D"/>
<ellipse cx="228.835" cy="54.3463" rx="1.63601" ry="1.63424" fill="#6D6D6D"/>
<ellipse cx="228.835" cy="45.6304" rx="1.63601" ry="1.63424" fill="#6D6D6D"/>
<ellipse cx="228.835" cy="36.9144" rx="1.63601" ry="1.63424" fill="#6D6D6D"/>
<ellipse cx="228.835" cy="28.1985" rx="1.63601" ry="1.63424" fill="#6D6D6D"/>
<ellipse cx="228.835" cy="19.4825" rx="1.63601" ry="1.63424" fill="#6D6D6D"/>
<ellipse cx="228.835" cy="10.7665" rx="1.63601" ry="1.63424" fill="#6D6D6D"/>
<ellipse cx="228.835" cy="2.05059" rx="1.63601" ry="1.63424" fill="#6D6D6D"/>
<ellipse cx="185.209" cy="63.0623" rx="1.63601" ry="1.63424" fill="#6D6D6D"/>
<ellipse cx="185.209" cy="54.3463" rx="1.63601" ry="1.63424" fill="#6D6D6D"/>
<ellipse cx="185.209" cy="45.6304" rx="1.63601" ry="1.63424" fill="#6D6D6D"/>
<ellipse cx="185.209" cy="36.9144" rx="1.63601" ry="1.63424" fill="#6D6D6D"/>
<ellipse cx="185.209" cy="28.1985" rx="1.63601" ry="1.63424" fill="#6D6D6D"/>
<ellipse cx="185.209" cy="19.4825" rx="1.63601" ry="1.63424" fill="#6D6D6D"/>
<ellipse cx="185.209" cy="10.7665" rx="1.63601" ry="1.63424" fill="#6D6D6D"/>
<ellipse cx="185.209" cy="2.05059" rx="1.63601" ry="1.63424" fill="#6D6D6D"/>
<ellipse cx="193.934" cy="63.0623" rx="1.63601" ry="1.63424" fill="#6D6D6D"/>
<ellipse cx="193.934" cy="54.3463" rx="1.63601" ry="1.63424" fill="#6D6D6D"/>
<ellipse cx="193.934" cy="45.6304" rx="1.63601" ry="1.63424" fill="#6D6D6D"/>
<ellipse cx="193.934" cy="36.9144" rx="1.63601" ry="1.63424" fill="#6D6D6D"/>
<ellipse cx="193.934" cy="28.1985" rx="1.63601" ry="1.63424" fill="#6D6D6D"/>
<ellipse cx="193.934" cy="19.4825" rx="1.63601" ry="1.63424" fill="#6D6D6D"/>
<ellipse cx="193.934" cy="10.7665" rx="1.63601" ry="1.63424" fill="#6D6D6D"/>
<ellipse cx="193.934" cy="2.05059" rx="1.63601" ry="1.63424" fill="#6D6D6D"/>
<ellipse cx="202.659" cy="63.0623" rx="1.63601" ry="1.63424" fill="#6D6D6D"/>
<ellipse cx="202.659" cy="54.3463" rx="1.63601" ry="1.63424" fill="#6D6D6D"/>
<ellipse cx="202.659" cy="45.6304" rx="1.63601" ry="1.63424" fill="#6D6D6D"/>
<ellipse cx="202.659" cy="36.9144" rx="1.63601" ry="1.63424" fill="#6D6D6D"/>
<ellipse cx="202.659" cy="28.1985" rx="1.63601" ry="1.63424" fill="#6D6D6D"/>
<ellipse cx="202.659" cy="19.4825" rx="1.63601" ry="1.63424" fill="#6D6D6D"/>
<ellipse cx="202.659" cy="10.7665" rx="1.63601" ry="1.63424" fill="#6D6D6D"/>
<ellipse cx="202.659" cy="2.05059" rx="1.63601" ry="1.63424" fill="#6D6D6D"/>
<ellipse cx="159.032" cy="63.0623" rx="1.63601" ry="1.63424" fill="#6D6D6D"/>
<ellipse cx="159.032" cy="54.3463" rx="1.63601" ry="1.63424" fill="#6D6D6D"/>
<ellipse cx="159.032" cy="45.6304" rx="1.63601" ry="1.63424" fill="#6D6D6D"/>
<ellipse cx="159.032" cy="36.9144" rx="1.63601" ry="1.63424" fill="#6D6D6D"/>
<ellipse cx="159.032" cy="28.1985" rx="1.63601" ry="1.63424" fill="#6D6D6D"/>
<ellipse cx="159.032" cy="19.4825" rx="1.63601" ry="1.63424" fill="#6D6D6D"/>
<ellipse cx="159.032" cy="10.7665" rx="1.63601" ry="1.63424" fill="#6D6D6D"/>
<ellipse cx="159.032" cy="2.05059" rx="1.63601" ry="1.63424" fill="#6D6D6D"/>
<ellipse cx="167.758" cy="63.0623" rx="1.63601" ry="1.63424" fill="#6D6D6D"/>
<ellipse cx="167.758" cy="54.3463" rx="1.63601" ry="1.63424" fill="#6D6D6D"/>
<ellipse cx="167.758" cy="45.6304" rx="1.63601" ry="1.63424" fill="#6D6D6D"/>
<ellipse cx="167.758" cy="36.9144" rx="1.63601" ry="1.63424" fill="#6D6D6D"/>
<ellipse cx="167.758" cy="28.1985" rx="1.63601" ry="1.63424" fill="#6D6D6D"/>
<ellipse cx="167.758" cy="19.4825" rx="1.63601" ry="1.63424" fill="#6D6D6D"/>
<ellipse cx="167.758" cy="10.7665" rx="1.63601" ry="1.63424" fill="#6D6D6D"/>
<ellipse cx="167.758" cy="2.05059" rx="1.63601" ry="1.63424" fill="#6D6D6D"/>
<ellipse cx="176.483" cy="63.0623" rx="1.63601" ry="1.63424" fill="#6D6D6D"/>
<ellipse cx="176.483" cy="54.3463" rx="1.63601" ry="1.63424" fill="#6D6D6D"/>
<ellipse cx="289.913" cy="80.4942" rx="1.63601" ry="1.63424" fill="#6D6D6D"/>
<ellipse cx="289.913" cy="71.7782" rx="1.63601" ry="1.63424" fill="#6D6D6D"/>
<ellipse cx="298.639" cy="80.4942" rx="1.63601" ry="1.63424" fill="#6D6D6D"/>
<ellipse cx="298.639" cy="71.7782" rx="1.63601" ry="1.63424" fill="#6D6D6D"/>
<ellipse cx="307.364" cy="80.4942" rx="1.63601" ry="1.63424" fill="#6D6D6D"/>
<ellipse cx="307.364" cy="71.7782" rx="1.63601" ry="1.63424" fill="#6D6D6D"/>
<ellipse cx="263.737" cy="80.4942" rx="1.63601" ry="1.63424" fill="#6D6D6D"/>
<ellipse cx="263.737" cy="71.7782" rx="1.63601" ry="1.63424" fill="#6D6D6D"/>
<ellipse cx="272.462" cy="80.4942" rx="1.63601" ry="1.63424" fill="#6D6D6D"/>
<ellipse cx="272.462" cy="71.7782" rx="1.63601" ry="1.63424" fill="#6D6D6D"/>
<ellipse cx="281.188" cy="80.4942" rx="1.63601" ry="1.63424" fill="#6D6D6D"/>
<ellipse cx="281.188" cy="71.7782" rx="1.63601" ry="1.63424" fill="#6D6D6D"/>
<ellipse cx="237.561" cy="80.4942" rx="1.63601" ry="1.63424" fill="#6D6D6D"/>
<ellipse cx="237.561" cy="71.7782" rx="1.63601" ry="1.63424" fill="#6D6D6D"/>
<ellipse cx="246.286" cy="80.4942" rx="1.63601" ry="1.63424" fill="#6D6D6D"/>
<ellipse cx="246.286" cy="71.7782" rx="1.63601" ry="1.63424" fill="#6D6D6D"/>
<ellipse cx="255.012" cy="80.4942" rx="1.63601" ry="1.63424" fill="#6D6D6D"/>
<ellipse cx="255.012" cy="71.7782" rx="1.63601" ry="1.63424" fill="#6D6D6D"/>
<ellipse cx="211.385" cy="80.4942" rx="1.63601" ry="1.63424" fill="#6D6D6D"/>
<ellipse cx="211.385" cy="71.7782" rx="1.63601" ry="1.63424" fill="#6D6D6D"/>
<ellipse cx="220.11" cy="80.4942" rx="1.63601" ry="1.63424" fill="#6D6D6D"/>
<ellipse cx="220.11" cy="71.7782" rx="1.63601" ry="1.63424" fill="#6D6D6D"/>
<ellipse cx="228.835" cy="80.4942" rx="1.63601" ry="1.63424" fill="#6D6D6D"/>
<ellipse cx="228.835" cy="71.7782" rx="1.63601" ry="1.63424" fill="#6D6D6D"/>
<ellipse cx="185.209" cy="80.4942" rx="1.63601" ry="1.63424" fill="#6D6D6D"/>
<ellipse cx="185.209" cy="71.7782" rx="1.63601" ry="1.63424" fill="#6D6D6D"/>
<ellipse cx="193.934" cy="80.4942" rx="1.63601" ry="1.63424" fill="#6D6D6D"/>
<ellipse cx="193.934" cy="71.7782" rx="1.63601" ry="1.63424" fill="#6D6D6D"/>
<ellipse cx="202.659" cy="80.4942" rx="1.63601" ry="1.63424" fill="#6D6D6D"/>
<ellipse cx="202.659" cy="71.7782" rx="1.63601" ry="1.63424" fill="#6D6D6D"/>
<ellipse cx="159.032" cy="80.4942" rx="1.63601" ry="1.63424" fill="#6D6D6D"/>
<ellipse cx="159.032" cy="71.7782" rx="1.63601" ry="1.63424" fill="#6D6D6D"/>
<ellipse cx="167.758" cy="80.4942" rx="1.63601" ry="1.63424" fill="#6D6D6D"/>
<ellipse cx="167.758" cy="71.7782" rx="1.63601" ry="1.63424" fill="#6D6D6D"/>
<ellipse cx="176.483" cy="80.4942" rx="1.63601" ry="1.63424" fill="#6D6D6D"/>
<ellipse cx="176.483" cy="71.7782" rx="1.63601" ry="1.63424" fill="#6D6D6D"/>
<ellipse cx="176.483" cy="45.6304" rx="1.63601" ry="1.63424" fill="#6D6D6D"/>
<ellipse cx="176.483" cy="36.9144" rx="1.63601" ry="1.63424" fill="#6D6D6D"/>
<ellipse cx="176.483" cy="28.1985" rx="1.63601" ry="1.63424" fill="#6D6D6D"/>
<ellipse cx="176.483" cy="19.4825" rx="1.63601" ry="1.63424" fill="#6D6D6D"/>
<ellipse cx="176.483" cy="10.7665" rx="1.63601" ry="1.63424" fill="#6D6D6D"/>
<ellipse cx="176.483" cy="2.05059" rx="1.63601" ry="1.63424" fill="#6D6D6D"/>
<ellipse cx="132.856" cy="63.0623" rx="1.63601" ry="1.63424" fill="#6D6D6D"/>
<ellipse cx="132.856" cy="54.3463" rx="1.63601" ry="1.63424" fill="#6D6D6D"/>
<ellipse cx="132.856" cy="45.6304" rx="1.63601" ry="1.63424" fill="#6D6D6D"/>
<ellipse cx="132.856" cy="36.9144" rx="1.63601" ry="1.63424" fill="#6D6D6D"/>
<ellipse cx="132.856" cy="28.1985" rx="1.63601" ry="1.63424" fill="#6D6D6D"/>
<ellipse cx="132.856" cy="19.4825" rx="1.63601" ry="1.63424" fill="#6D6D6D"/>
<ellipse cx="132.856" cy="10.7665" rx="1.63601" ry="1.63424" fill="#6D6D6D"/>
<ellipse cx="132.856" cy="2.05059" rx="1.63601" ry="1.63424" fill="#6D6D6D"/>
<ellipse cx="141.582" cy="63.0623" rx="1.63601" ry="1.63424" fill="#6D6D6D"/>
<ellipse cx="141.582" cy="54.3463" rx="1.63601" ry="1.63424" fill="#6D6D6D"/>
<ellipse cx="141.582" cy="45.6304" rx="1.63601" ry="1.63424" fill="#6D6D6D"/>
<ellipse cx="141.582" cy="36.9144" rx="1.63601" ry="1.63424" fill="#6D6D6D"/>
<ellipse cx="141.582" cy="28.1985" rx="1.63601" ry="1.63424" fill="#6D6D6D"/>
<ellipse cx="141.582" cy="19.4825" rx="1.63601" ry="1.63424" fill="#6D6D6D"/>
<ellipse cx="141.582" cy="10.7665" rx="1.63601" ry="1.63424" fill="#6D6D6D"/>
<ellipse cx="141.582" cy="2.05059" rx="1.63601" ry="1.63424" fill="#6D6D6D"/>
<ellipse cx="150.307" cy="63.0623" rx="1.63601" ry="1.63424" fill="#6D6D6D"/>
<ellipse cx="150.307" cy="54.3463" rx="1.63601" ry="1.63424" fill="#6D6D6D"/>
<ellipse cx="150.307" cy="45.6304" rx="1.63601" ry="1.63424" fill="#6D6D6D"/>
<ellipse cx="150.307" cy="36.9144" rx="1.63601" ry="1.63424" fill="#6D6D6D"/>
<ellipse cx="150.307" cy="28.1985" rx="1.63601" ry="1.63424" fill="#6D6D6D"/>
<ellipse cx="150.307" cy="19.4825" rx="1.63601" ry="1.63424" fill="#6D6D6D"/>
<ellipse cx="150.307" cy="10.7665" rx="1.63601" ry="1.63424" fill="#6D6D6D"/>
<ellipse cx="150.307" cy="2.05059" rx="1.63601" ry="1.63424" fill="#6D6D6D"/>
<ellipse cx="106.68" cy="63.0623" rx="1.63601" ry="1.63424" fill="#6D6D6D"/>
<ellipse cx="106.68" cy="54.3463" rx="1.63601" ry="1.63424" fill="#6D6D6D"/>
<ellipse cx="106.68" cy="45.6304" rx="1.63601" ry="1.63424" fill="#6D6D6D"/>
<ellipse cx="106.68" cy="36.9144" rx="1.63601" ry="1.63424" fill="#6D6D6D"/>
<ellipse cx="106.68" cy="28.1985" rx="1.63601" ry="1.63424" fill="#6D6D6D"/>
<ellipse cx="106.68" cy="19.4825" rx="1.63601" ry="1.63424" fill="#6D6D6D"/>
<ellipse cx="106.68" cy="10.7665" rx="1.63601" ry="1.63424" fill="#6D6D6D"/>
<ellipse cx="106.68" cy="2.05059" rx="1.63601" ry="1.63424" fill="#6D6D6D"/>
<ellipse cx="115.405" cy="63.0623" rx="1.63601" ry="1.63424" fill="#6D6D6D"/>
<ellipse cx="115.405" cy="54.3463" rx="1.63601" ry="1.63424" fill="#6D6D6D"/>
<ellipse cx="115.405" cy="45.6304" rx="1.63601" ry="1.63424" fill="#6D6D6D"/>
<ellipse cx="115.405" cy="36.9144" rx="1.63601" ry="1.63424" fill="#6D6D6D"/>
<ellipse cx="115.405" cy="28.1985" rx="1.63601" ry="1.63424" fill="#6D6D6D"/>
<ellipse cx="115.405" cy="19.4825" rx="1.63601" ry="1.63424" fill="#6D6D6D"/>
<ellipse cx="115.405" cy="10.7665" rx="1.63601" ry="1.63424" fill="#6D6D6D"/>
<ellipse cx="115.405" cy="2.05059" rx="1.63601" ry="1.63424" fill="#6D6D6D"/>
<ellipse cx="124.131" cy="63.0623" rx="1.63601" ry="1.63424" fill="#6D6D6D"/>
<ellipse cx="124.131" cy="54.3463" rx="1.63601" ry="1.63424" fill="#6D6D6D"/>
<ellipse cx="124.131" cy="45.6304" rx="1.63601" ry="1.63424" fill="#6D6D6D"/>
<ellipse cx="124.131" cy="36.9144" rx="1.63601" ry="1.63424" fill="#6D6D6D"/>
<ellipse cx="124.131" cy="28.1985" rx="1.63601" ry="1.63424" fill="#6D6D6D"/>
<ellipse cx="124.131" cy="19.4825" rx="1.63601" ry="1.63424" fill="#6D6D6D"/>
<ellipse cx="124.131" cy="10.7665" rx="1.63601" ry="1.63424" fill="#6D6D6D"/>
<ellipse cx="124.131" cy="2.05059" rx="1.63601" ry="1.63424" fill="#6D6D6D"/>
<ellipse cx="80.5038" cy="63.0623" rx="1.63601" ry="1.63424" fill="#6D6D6D"/>
<ellipse cx="80.5038" cy="54.3463" rx="1.63601" ry="1.63424" fill="#6D6D6D"/>
<ellipse cx="80.5038" cy="45.6304" rx="1.63601" ry="1.63424" fill="#6D6D6D"/>
<ellipse cx="80.5038" cy="36.9144" rx="1.63601" ry="1.63424" fill="#6D6D6D"/>
<ellipse cx="80.5038" cy="28.1985" rx="1.63601" ry="1.63424" fill="#6D6D6D"/>
<ellipse cx="80.5038" cy="19.4825" rx="1.63601" ry="1.63424" fill="#6D6D6D"/>
<ellipse cx="80.5038" cy="10.7665" rx="1.63601" ry="1.63424" fill="#6D6D6D"/>
<ellipse cx="80.5038" cy="2.05059" rx="1.63601" ry="1.63424" fill="#6D6D6D"/>
<ellipse cx="89.2293" cy="63.0623" rx="1.63601" ry="1.63424" fill="#6D6D6D"/>
<ellipse cx="89.2293" cy="54.3463" rx="1.63601" ry="1.63424" fill="#6D6D6D"/>
<ellipse cx="89.2293" cy="45.6304" rx="1.63601" ry="1.63424" fill="#6D6D6D"/>
<ellipse cx="89.2293" cy="36.9144" rx="1.63601" ry="1.63424" fill="#6D6D6D"/>
<ellipse cx="89.2293" cy="28.1985" rx="1.63601" ry="1.63424" fill="#6D6D6D"/>
<ellipse cx="89.2293" cy="19.4825" rx="1.63601" ry="1.63424" fill="#6D6D6D"/>
<ellipse cx="89.2293" cy="10.7665" rx="1.63601" ry="1.63424" fill="#6D6D6D"/>
<ellipse cx="89.2293" cy="2.05059" rx="1.63601" ry="1.63424" fill="#6D6D6D"/>
<ellipse cx="97.9546" cy="63.0623" rx="1.63601" ry="1.63424" fill="#6D6D6D"/>
<ellipse cx="97.9546" cy="54.3463" rx="1.63601" ry="1.63424" fill="#6D6D6D"/>
<ellipse cx="97.9546" cy="45.6304" rx="1.63601" ry="1.63424" fill="#6D6D6D"/>
<ellipse cx="97.9546" cy="36.9144" rx="1.63601" ry="1.63424" fill="#6D6D6D"/>
<ellipse cx="97.9546" cy="28.1985" rx="1.63601" ry="1.63424" fill="#6D6D6D"/>
<ellipse cx="97.9546" cy="19.4825" rx="1.63601" ry="1.63424" fill="#6D6D6D"/>
<ellipse cx="97.9546" cy="10.7665" rx="1.63601" ry="1.63424" fill="#6D6D6D"/>
<ellipse cx="97.9546" cy="2.05059" rx="1.63601" ry="1.63424" fill="#6D6D6D"/>
<ellipse cx="54.3277" cy="63.0623" rx="1.63601" ry="1.63424" fill="#6D6D6D"/>
<ellipse cx="54.3277" cy="54.3463" rx="1.63601" ry="1.63424" fill="#6D6D6D"/>
<ellipse cx="54.3277" cy="45.6304" rx="1.63601" ry="1.63424" fill="#6D6D6D"/>
<ellipse cx="54.3277" cy="36.9144" rx="1.63601" ry="1.63424" fill="#6D6D6D"/>
<ellipse cx="54.3277" cy="28.1985" rx="1.63601" ry="1.63424" fill="#6D6D6D"/>
<ellipse cx="54.3277" cy="19.4825" rx="1.63601" ry="1.63424" fill="#6D6D6D"/>
<ellipse cx="54.3277" cy="10.7665" rx="1.63601" ry="1.63424" fill="#6D6D6D"/>
<ellipse cx="54.3277" cy="2.05059" rx="1.63601" ry="1.63424" fill="#6D6D6D"/>
<ellipse cx="63.0531" cy="63.0623" rx="1.63601" ry="1.63424" fill="#6D6D6D"/>
<ellipse cx="63.0531" cy="54.3463" rx="1.63601" ry="1.63424" fill="#6D6D6D"/>
<ellipse cx="63.0531" cy="45.6304" rx="1.63601" ry="1.63424" fill="#6D6D6D"/>
<ellipse cx="63.0531" cy="36.9144" rx="1.63601" ry="1.63424" fill="#6D6D6D"/>
<ellipse cx="63.0531" cy="28.1985" rx="1.63601" ry="1.63424" fill="#6D6D6D"/>
<ellipse cx="63.0531" cy="19.4825" rx="1.63601" ry="1.63424" fill="#6D6D6D"/>
<ellipse cx="63.0531" cy="10.7665" rx="1.63601" ry="1.63424" fill="#6D6D6D"/>
<ellipse cx="63.0531" cy="2.05059" rx="1.63601" ry="1.63424" fill="#6D6D6D"/>
<ellipse cx="71.7785" cy="63.0623" rx="1.63601" ry="1.63424" fill="#6D6D6D"/>
<ellipse cx="71.7785" cy="54.3463" rx="1.63601" ry="1.63424" fill="#6D6D6D"/>
<ellipse cx="71.7785" cy="45.6304" rx="1.63601" ry="1.63424" fill="#6D6D6D"/>
<ellipse cx="71.7785" cy="36.9144" rx="1.63601" ry="1.63424" fill="#6D6D6D"/>
<ellipse cx="71.7785" cy="28.1985" rx="1.63601" ry="1.63424" fill="#6D6D6D"/>
<ellipse cx="71.7785" cy="19.4825" rx="1.63601" ry="1.63424" fill="#6D6D6D"/>
<ellipse cx="71.7785" cy="10.7665" rx="1.63601" ry="1.63424" fill="#6D6D6D"/>
<ellipse cx="71.7785" cy="2.05059" rx="1.63601" ry="1.63424" fill="#6D6D6D"/>
<ellipse cx="28.1515" cy="63.0623" rx="1.63601" ry="1.63424" fill="#6D6D6D"/>
<ellipse cx="28.1515" cy="54.3463" rx="1.63601" ry="1.63424" fill="#6D6D6D"/>
<ellipse cx="28.1515" cy="45.6304" rx="1.63601" ry="1.63424" fill="#6D6D6D"/>
<ellipse cx="28.1515" cy="36.9144" rx="1.63601" ry="1.63424" fill="#6D6D6D"/>
<ellipse cx="28.1515" cy="28.1985" rx="1.63601" ry="1.63424" fill="#6D6D6D"/>
<ellipse cx="28.1515" cy="19.4825" rx="1.63601" ry="1.63424" fill="#6D6D6D"/>
<ellipse cx="28.1515" cy="10.7665" rx="1.63601" ry="1.63424" fill="#6D6D6D"/>
<ellipse cx="28.1515" cy="2.05059" rx="1.63601" ry="1.63424" fill="#6D6D6D"/>
<ellipse cx="36.8769" cy="63.0623" rx="1.63601" ry="1.63424" fill="#6D6D6D"/>
<ellipse cx="36.8769" cy="54.3463" rx="1.63601" ry="1.63424" fill="#6D6D6D"/>
<ellipse cx="36.8769" cy="45.6304" rx="1.63601" ry="1.63424" fill="#6D6D6D"/>
<ellipse cx="36.8769" cy="36.9144" rx="1.63601" ry="1.63424" fill="#6D6D6D"/>
<ellipse cx="36.8769" cy="28.1985" rx="1.63601" ry="1.63424" fill="#6D6D6D"/>
<ellipse cx="36.8769" cy="19.4825" rx="1.63601" ry="1.63424" fill="#6D6D6D"/>
<ellipse cx="36.8769" cy="10.7665" rx="1.63601" ry="1.63424" fill="#6D6D6D"/>
<ellipse cx="36.8769" cy="2.05059" rx="1.63601" ry="1.63424" fill="#6D6D6D"/>
<ellipse cx="45.6023" cy="63.0623" rx="1.63601" ry="1.63424" fill="#6D6D6D"/>
<ellipse cx="45.6023" cy="54.3463" rx="1.63601" ry="1.63424" fill="#6D6D6D"/>
<ellipse cx="45.6023" cy="45.6304" rx="1.63601" ry="1.63424" fill="#6D6D6D"/>
<ellipse cx="45.6023" cy="36.9144" rx="1.63601" ry="1.63424" fill="#6D6D6D"/>
<ellipse cx="45.6023" cy="28.1985" rx="1.63601" ry="1.63424" fill="#6D6D6D"/>
<ellipse cx="45.6023" cy="19.4825" rx="1.63601" ry="1.63424" fill="#6D6D6D"/>
<ellipse cx="45.6023" cy="10.7665" rx="1.63601" ry="1.63424" fill="#6D6D6D"/>
<ellipse cx="45.6023" cy="2.05059" rx="1.63601" ry="1.63424" fill="#6D6D6D"/>
<ellipse cx="1.97537" cy="63.0623" rx="1.63601" ry="1.63424" fill="#6D6D6D"/>
<ellipse cx="1.97537" cy="54.3463" rx="1.63601" ry="1.63424" fill="#6D6D6D"/>
<ellipse cx="1.97537" cy="45.6304" rx="1.63601" ry="1.63424" fill="#6D6D6D"/>
<ellipse cx="1.97537" cy="36.9144" rx="1.63601" ry="1.63424" fill="#6D6D6D"/>
<ellipse cx="1.97537" cy="28.1985" rx="1.63601" ry="1.63424" fill="#6D6D6D"/>
<ellipse cx="1.97537" cy="19.4825" rx="1.63601" ry="1.63424" fill="#6D6D6D"/>
<ellipse cx="1.97537" cy="10.7665" rx="1.63601" ry="1.63424" fill="#6D6D6D"/>
<ellipse cx="1.97537" cy="2.05059" rx="1.63601" ry="1.63424" fill="#6D6D6D"/>
<ellipse cx="10.7008" cy="63.0623" rx="1.63601" ry="1.63424" fill="#6D6D6D"/>
<ellipse cx="10.7008" cy="54.3463" rx="1.63601" ry="1.63424" fill="#6D6D6D"/>
<ellipse cx="10.7008" cy="45.6304" rx="1.63601" ry="1.63424" fill="#6D6D6D"/>
<ellipse cx="10.7008" cy="36.9144" rx="1.63601" ry="1.63424" fill="#6D6D6D"/>
<ellipse cx="10.7008" cy="28.1985" rx="1.63601" ry="1.63424" fill="#6D6D6D"/>
<ellipse cx="10.7008" cy="19.4825" rx="1.63601" ry="1.63424" fill="#6D6D6D"/>
<ellipse cx="10.7008" cy="10.7665" rx="1.63601" ry="1.63424" fill="#6D6D6D"/>
<ellipse cx="10.7008" cy="2.05059" rx="1.63601" ry="1.63424" fill="#6D6D6D"/>
<ellipse cx="19.4262" cy="63.0623" rx="1.63601" ry="1.63424" fill="#6D6D6D"/>
<ellipse cx="19.4262" cy="54.3463" rx="1.63601" ry="1.63424" fill="#6D6D6D"/>
<ellipse cx="132.856" cy="80.4942" rx="1.63601" ry="1.63424" fill="#6D6D6D"/>
<ellipse cx="132.856" cy="71.7782" rx="1.63601" ry="1.63424" fill="#6D6D6D"/>
<ellipse cx="141.582" cy="80.4942" rx="1.63601" ry="1.63424" fill="#6D6D6D"/>
<ellipse cx="141.582" cy="71.7782" rx="1.63601" ry="1.63424" fill="#6D6D6D"/>
<ellipse cx="150.307" cy="80.4942" rx="1.63601" ry="1.63424" fill="#6D6D6D"/>
<ellipse cx="150.307" cy="71.7782" rx="1.63601" ry="1.63424" fill="#6D6D6D"/>
<ellipse cx="106.68" cy="80.4942" rx="1.63601" ry="1.63424" fill="#6D6D6D"/>
<ellipse cx="106.68" cy="71.7782" rx="1.63601" ry="1.63424" fill="#6D6D6D"/>
<ellipse cx="115.405" cy="80.4942" rx="1.63601" ry="1.63424" fill="#6D6D6D"/>
<ellipse cx="115.405" cy="71.7782" rx="1.63601" ry="1.63424" fill="#6D6D6D"/>
<ellipse cx="124.131" cy="80.4942" rx="1.63601" ry="1.63424" fill="#6D6D6D"/>
<ellipse cx="124.131" cy="71.7782" rx="1.63601" ry="1.63424" fill="#6D6D6D"/>
<ellipse cx="80.5038" cy="80.4942" rx="1.63601" ry="1.63424" fill="#6D6D6D"/>
<ellipse cx="80.5038" cy="71.7782" rx="1.63601" ry="1.63424" fill="#6D6D6D"/>
<ellipse cx="89.2293" cy="80.4942" rx="1.63601" ry="1.63424" fill="#6D6D6D"/>
<ellipse cx="89.2293" cy="71.7782" rx="1.63601" ry="1.63424" fill="#6D6D6D"/>
<ellipse cx="97.9546" cy="80.4942" rx="1.63601" ry="1.63424" fill="#6D6D6D"/>
<ellipse cx="97.9546" cy="71.7782" rx="1.63601" ry="1.63424" fill="#6D6D6D"/>
<ellipse cx="54.3277" cy="80.4942" rx="1.63601" ry="1.63424" fill="#6D6D6D"/>
<ellipse cx="54.3277" cy="71.7782" rx="1.63601" ry="1.63424" fill="#6D6D6D"/>
<ellipse cx="63.0531" cy="80.4942" rx="1.63601" ry="1.63424" fill="#6D6D6D"/>
<ellipse cx="63.0531" cy="71.7782" rx="1.63601" ry="1.63424" fill="#6D6D6D"/>
<ellipse cx="71.7785" cy="80.4942" rx="1.63601" ry="1.63424" fill="#6D6D6D"/>
<ellipse cx="71.7785" cy="71.7782" rx="1.63601" ry="1.63424" fill="#6D6D6D"/>
<ellipse cx="28.1515" cy="80.4942" rx="1.63601" ry="1.63424" fill="#6D6D6D"/>
<ellipse cx="28.1515" cy="71.7782" rx="1.63601" ry="1.63424" fill="#6D6D6D"/>
<ellipse cx="36.8769" cy="80.4942" rx="1.63601" ry="1.63424" fill="#6D6D6D"/>
<ellipse cx="36.8769" cy="71.7782" rx="1.63601" ry="1.63424" fill="#6D6D6D"/>
<ellipse cx="45.6023" cy="80.4942" rx="1.63601" ry="1.63424" fill="#6D6D6D"/>
<ellipse cx="45.6023" cy="71.7782" rx="1.63601" ry="1.63424" fill="#6D6D6D"/>
<ellipse cx="1.97537" cy="80.4942" rx="1.63601" ry="1.63424" fill="#6D6D6D"/>
<ellipse cx="1.97537" cy="71.7782" rx="1.63601" ry="1.63424" fill="#6D6D6D"/>
<ellipse cx="10.7008" cy="80.4942" rx="1.63601" ry="1.63424" fill="#6D6D6D"/>
<ellipse cx="10.7008" cy="71.7782" rx="1.63601" ry="1.63424" fill="#6D6D6D"/>
<ellipse cx="19.4262" cy="80.4942" rx="1.63601" ry="1.63424" fill="#6D6D6D"/>
<ellipse cx="19.4262" cy="71.7782" rx="1.63601" ry="1.63424" fill="#6D6D6D"/>
<ellipse cx="19.4262" cy="45.6304" rx="1.63601" ry="1.63424" fill="#6D6D6D"/>
<ellipse cx="19.4262" cy="36.9144" rx="1.63601" ry="1.63424" fill="#6D6D6D"/>
<ellipse cx="19.4262" cy="28.1985" rx="1.63601" ry="1.63424" fill="#6D6D6D"/>
<ellipse cx="19.4262" cy="19.4825" rx="1.63601" ry="1.63424" fill="#6D6D6D"/>
<ellipse cx="19.4262" cy="10.7665" rx="1.63601" ry="1.63424" fill="#6D6D6D"/>
<ellipse cx="19.4262" cy="2.05059" rx="1.63601" ry="1.63424" fill="#6D6D6D"/>
</svg>
